<svg
                  width="50"
                  height="50"
                  viewBox="0 0 50 50"
                  fill="none"
                  xmlns="http://www.w3.org/2000/svg"
                >
                  <path
                    d="M25 50C38.8071 50 50 38.8071 50 25C50 11.1929 38.8071 0 25 0C11.1929 0 0 11.1929 0 25C0 38.8071 11.1929 50 25 50Z"
                    fill="#96AE3C"
                  />
                  <path
                    d="M50 25C50 28.9844 49.0625 32.7734 47.3828 36.1328C43.4375 44.0234 35.4687 49.5313 26.1719 49.9609C25.7812 49.9609 25.3906 50 25 50C22.2266 50 19.5703 49.5312 17.0703 48.7109C11.9531 46.9922 7.57813 43.6719 4.53125 39.375C1.67969 35.3125 0 30.3516 0 25C0 19.6094 1.71875 14.6094 4.60938 10.5078C5.39063 9.41406 6.25 8.39844 7.1875 7.46094C11.7188 2.85156 18.0469 0 25 0C31.1328 0 36.7578 2.22656 41.0937 5.89844C43.6719 8.08594 45.8203 10.7812 47.3437 13.8672C49.0625 17.2266 50 20.9766 50 25Z"
                    fill="#96AE3C"
                  />
                  <path
                    d="M47.3828 13.8672V36.1719C43.4375 44.0625 35.4688 49.5703 26.1719 50L17.0703 48.75C11.9531 47.0313 7.57813 43.7109 4.53125 39.4141V11.2891C4.53125 11.0156 4.57031 10.7813 4.60937 10.5078C4.88281 9.02344 5.89844 7.8125 7.1875 7.46094C7.30469 7.42188 7.42187 7.38281 7.53906 7.38281L27.5 4.60938C27.8125 4.57031 28.125 4.57031 28.3984 4.60938C28.3984 4.60938 36.6406 5.42969 41.0547 5.89844C43.7109 8.08594 45.8594 10.7813 47.3828 13.8672Z"
                    fill="#78983D"
                  />
                  <path
                    d="M42.3438 4.60938C42.1484 4.60938 26.875 3.04688 26.875 3.04688C25.1953 3.28125 18.7891 4.45312 18.7891 6.40625V38.5938C18.7891 40.5078 20.1172 42.2656 21.7969 42.5L28.8672 43.4766L28.5156 43.8672L27.5391 48.5156L42.9297 45.2734C42.9688 45.2734 42.9687 45.2734 43.0078 45.2734L43.125 45.2344C44.6875 44.8828 45.8203 43.5156 45.8203 41.6797V8.24219C45.8203 6.13281 44.2969 4.60938 42.3438 4.60938Z"
                    fill="#414D53"
                  />
                  <path
                    d="M25.9766 3.04688L6.01562 5.82031C4.33594 6.05469 3.00781 7.8125 3.00781 9.72656V41.9141C3.00781 43.8281 4.33594 45.5859 6.01562 45.8203L25.9766 48.5938C28.2031 48.9063 30.0391 47.3047 30.0391 45V6.64063C30.0391 4.375 28.1641 2.73438 25.9766 3.04688Z"
                    fill="#667D88"
                  />
                  <path
                    d="M25.9766 6.17187L6.01562 8.55468C5.625 8.59374 5.3125 9.02343 5.3125 9.45312V42.1875C5.3125 42.6562 5.625 43.0469 6.01562 43.0859L25.9766 45.4687C26.4844 45.5469 26.9141 45.1562 26.9141 44.6484V7.03124C26.875 6.48437 26.4844 6.13281 25.9766 6.17187Z"
                    fill="#414D53"
                  />
                  <path
                    d="M6.44531 9.88281V41.7578L25.3516 43.8672V7.8125L6.44531 9.88281Z"
                    fill="#667D88"
                  />
                  <path
                    d="M23.2812 11.8359C23.2812 12.7344 22.5781 13.5156 21.7187 13.5938C20.8594 13.6719 20.1953 13.0078 20.1953 12.1094C20.1953 11.2109 20.8594 10.4297 21.7187 10.3516C22.5781 10.2344 23.2812 10.8984 23.2812 11.8359Z"
                    fill="#7CD1E7"
                  />
                  <path
                    d="M23.2812 17.9688C23.2812 18.8672 22.5781 19.6484 21.7187 19.6484C20.8594 19.6875 20.1953 18.9844 20.1953 18.0859C20.1953 17.1875 20.8594 16.4453 21.7187 16.4063C22.5781 16.3672 23.2812 17.0313 23.2812 17.9688Z"
                    fill="#91B93E"
                  />
                  <path
                    d="M23.2812 24.1015C23.2812 25 22.5781 25.7422 21.7187 25.7422C20.8594 25.7422 20.1953 25.039 20.1953 24.1406C20.1953 23.2422 20.8594 22.5 21.7187 22.5C22.5781 22.4609 23.2812 23.2031 23.2812 24.1015Z"
                    fill="#FAA83F"
                  />
                  <path
                    d="M8.20312 40.9375L7.46094 40.8594V38.7891L8.20312 38.8672V40.9375Z"
                    fill="#FAA83F"
                  />
                  <path
                    d="M9.64844 41.0547L8.86719 40.9766V38.9062L9.64844 38.9844V41.0547Z"
                    fill="#7CD1E7"
                  />
                  <path
                    d="M11.0938 41.2109L10.2735 41.1328V39.0625L11.0938 39.1015V41.2109Z"
                    fill="#EAB2D2"
                  />
                  <path
                    d="M12.5781 41.3672L11.7578 41.2891V39.1797L12.5781 39.2578V41.3672Z"
                    fill="#91B93E"
                  />
                  <path
                    d="M14.0625 41.5234L13.2422 41.4453V39.2969L14.0625 39.375V41.5234Z"
                    fill="#7CD1E7"
                  />
                  <path
                    d="M15.586 41.6797L14.7657 41.6015V39.4531L15.586 39.5312V41.6797Z"
                    fill="#F1903F"
                  />
                </svg>