<svg
                  width="50"
                  height="52"
                  viewBox="0 0 50 52"
                  fill="none"
                  xmlns="http://www.w3.org/2000/svg"
                >
                  <g clip-path="url(#clip0)">
                    <path
                      d="M25 52C38.8071 52 50 40.8557 50 27.1085C50 13.3612 38.8071 2.21692 25 2.21692C11.1929 2.21692 0 13.3612 0 27.1085C0 40.8557 11.1929 52 25 52Z"
                      fill="#CEDCE3"
                    />
                    <path
                      d="M32.9687 29.2476H18.7891C18.7891 29.2476 19.6484 26.0584 18.7891 22.0913C18.125 19.0187 31.7969 18.6298 31.4062 21.7412C30.8984 26.2917 32.9687 29.2476 32.9687 29.2476Z"
                      fill="#EDC452"
                    />
                    <path
                      d="M37.2266 27.4196L33.0859 26.6806L31.875 26.7195H31.8359L23.125 26.9918L21.875 27.0307L19.1406 27.1085L13.3203 27.3029C9.17969 27.4196 5.89844 30.9589 5.89844 35.1593L6.83594 43.5991C7.07031 45.816 8.98438 47.5273 11.2109 47.5273L40.0391 47.5662C42.3047 47.5662 44.1797 45.8549 44.4141 43.638L45.3516 34.7315C45.1953 30.7644 42.7734 28.5086 37.2266 27.4196Z"
                      fill="#374247"
                    />
                    <path
                      d="M25.5469 32.3979C29.1281 32.3979 32.0313 30.3606 32.0313 27.8474C32.0313 25.3343 29.1281 23.2969 25.5469 23.2969C21.9657 23.2969 19.0625 25.3343 19.0625 27.8474C19.0625 30.3606 21.9657 32.3979 25.5469 32.3979Z"
                      fill="#EDC452"
                    />
                    <path
                      d="M31.4844 23.0247C30.5859 24.5026 29.0625 25.5527 27.3437 25.9417C26.875 26.0583 26.4063 26.0972 25.9375 26.2139C24.9219 26.4084 23.9844 26.7973 22.9687 26.9918C22.7344 27.0307 22.5 27.0696 22.3047 27.0696C21.5625 27.0696 20.8984 26.6417 20.3125 26.175C20.0391 25.9417 19.7266 25.6694 19.6875 25.3194C19.6875 25.2027 19.6875 25.086 19.7266 25.0082C19.7656 24.9304 19.8437 24.8916 19.9219 24.8138C20.7812 24.2693 21.8359 24.1137 22.8516 24.0359C23.8672 23.9581 24.8828 23.997 25.8984 23.8414C26.6406 23.7248 27.3438 23.4914 28.0859 23.4525C28.3984 23.4525 28.7109 23.4525 29.0234 23.4136C29.3359 23.3747 29.6484 23.258 29.9609 23.1803C30.4687 23.0636 30.9766 23.0247 31.4844 23.0636V23.0247Z"
                      fill="#FAA83F"
                    />
                    <path
                      d="M33.3985 5.95064C33.3985 5.95064 28.3594 2.2558 28.1641 2.2558C27.9688 2.2558 19.4922 4.23934 19.4922 4.23934L18.5938 6.33957C18.5938 6.33957 15.0782 12.4069 16.5625 19.3687C17.1094 21.8968 17.8516 23.5303 18.5547 24.6193C19.4532 25.9417 21.0938 26.564 22.6953 26.175C24.7657 25.6694 28.086 24.8527 28.7891 24.8138C29.8438 24.7749 32.9297 23.0636 33.3594 18.1631C33.7891 13.3014 33.3985 5.95064 33.3985 5.95064Z"
                      fill="#EDC452"
                    />
                    <path
                      d="M36.3281 5.13388C35.4297 3.15034 33.5938 1.71129 31.5625 0.972326C29.5313 0.233358 27.3047 0.116679 25.1563 0.311144C24.1406 0.38893 23.0859 0.583396 22.1094 0.38893C21.4063 0.272251 20.7422 0 20.0781 0C20 0 19.9219 0 19.8438 0C18.3984 0.0777861 17.3047 1.55572 17.2656 2.99476C17.2656 3.77263 17.5 4.55049 17.3438 5.28945C17.1875 6.30067 16.4453 7.07853 16.1719 8.05086C15.8984 8.9454 16.0547 9.95662 16.2109 10.8901C16.3672 11.7457 15.8203 12.5625 15.9766 13.4181C16.0156 13.6515 16.1328 13.9237 16.3672 13.8459H16.4063C16.4063 13.807 17.2656 9.4899 18.3203 7.70082C18.4766 7.46746 18.6328 7.19521 18.8672 7.03964C18.8672 7.03964 18.8672 7.03964 18.9063 7.03964C19.1797 6.88407 19.5313 6.88407 19.8828 6.88407C21.6406 6.92296 23.3594 6.92296 25.1172 6.96185C26.6016 7.00075 27.9688 7.54525 29.0234 8.59536L31.2109 10.6956C31.7188 11.1623 31.875 11.9013 31.6016 12.5236C31.4453 12.9125 31.2109 13.4181 31.4844 13.7681C31.5625 13.8848 31.7188 13.9626 31.8359 14.0793C31.9141 14.1571 31.9531 14.2349 31.9922 14.3126C32.0313 14.4293 32.0703 14.5849 32.0703 14.7016V14.7405C32.0703 14.8571 32.0703 14.9738 32.0703 15.0516C32.0703 15.0905 32.0703 15.1683 32.0313 15.2072C31.9531 15.5961 31.7969 16.0239 31.875 16.4518C31.875 16.4907 31.9141 16.5684 31.9141 16.6073V16.6462V16.6851C31.9531 16.7629 31.9922 16.8407 32.0313 16.8796C32.1875 17.074 32.4609 17.1907 32.6953 17.1129C32.7734 16.5684 32.9297 15.985 33.2031 15.4794C33.2813 15.3239 33.3594 15.2072 33.4766 15.0905C33.6328 14.896 33.8672 14.7405 34.1016 14.6627C34.2969 14.5849 34.5313 14.546 34.7266 14.5849C34.8828 14.5849 35.0781 14.6238 35.2734 14.6627L35.5469 14.9349C35.5859 14.8571 35.5859 14.8183 35.625 14.7405C35.7031 14.4682 35.8203 14.196 35.8984 13.9237C35.9375 13.807 35.9766 13.6515 36.0156 13.5348C36.3672 12.4069 36.6797 11.2401 36.8359 10.0733C37.1484 8.43979 37.0313 6.6896 36.3281 5.13388Z"
                      fill="#414D53"
                    />
                    <path
                      d="M35.9766 14.0015C35.8985 14.2737 35.7813 14.546 35.7031 14.8182C35.7031 14.896 35.6641 14.9349 35.625 15.0127L35.3516 14.7405C35.1563 14.7016 35 14.6627 34.8047 14.6627C34.5703 14.6627 34.375 14.6627 34.1797 14.7405C33.9453 14.8182 33.711 14.9738 33.5547 15.1683C33.4375 15.285 33.3594 15.4405 33.2813 15.5572C33.0078 16.0239 32.8906 16.6462 32.7735 17.1907C32.5391 17.2685 32.2656 17.1518 32.1094 16.9574C32.0313 16.8796 31.9922 16.8018 31.9531 16.6851C31.9141 16.6462 31.9141 16.5684 31.9141 16.5295C31.836 16.1406 31.9922 15.7128 32.0703 15.285C32.1094 15.0905 32.1094 14.9349 32.1094 14.7405C32.1094 14.7016 32.1485 14.7016 32.1875 14.6627L32.2656 14.5849L32.3047 14.546L32.3438 14.5071C32.3828 14.4682 32.4219 14.4293 32.461 14.3904C32.461 14.3904 32.461 14.3904 32.5 14.3515L32.5391 14.3126L32.6172 14.2348C32.6563 14.196 32.6953 14.1571 32.7735 14.1182C32.8125 14.0793 32.8906 14.0404 32.9297 14.0015C32.9688 13.9626 33.0469 13.9237 33.086 13.8848C33.3203 13.7681 33.5547 13.6514 33.8281 13.5348C34.1016 13.457 34.375 13.4181 34.6875 13.4181C34.961 13.4181 35.2344 13.4959 35.4688 13.5737C35.586 13.7681 35.7813 13.8848 35.9766 14.0015Z"
                      fill="#414D53"
                    />
                    <path
                      d="M32.6172 17.1907C32.5781 17.5019 32.5781 17.813 32.6953 18.0853C32.7344 18.1631 32.7734 18.2408 32.8125 18.2797C32.8906 18.3964 32.9297 18.5131 33.0469 18.552C33.164 18.5909 33.2812 18.5909 33.3984 18.5909C33.4375 18.5909 33.4765 18.5909 33.4765 18.552C33.5156 18.552 33.5156 18.5131 33.5156 18.4742C33.5547 18.3186 33.5547 18.1631 33.5547 18.0464C33.5547 18.0075 33.5547 17.9686 33.5547 17.9297C33.5547 17.8908 33.5156 17.8519 33.4765 17.813C33.3594 17.6575 33.2422 17.5019 33.0859 17.3463C33.0469 17.3074 32.9687 17.2685 32.8906 17.2296C32.8125 17.2296 32.7344 17.2685 32.6172 17.1907Z"
                      fill="#FAA83F"
                    />
                    <path
                      d="M35.3125 14.5849C35.0391 14.3515 34.6484 14.3127 34.2969 14.3904C33.8281 14.4682 33.3594 14.7016 33.0859 15.0905C32.8906 15.3628 32.8125 15.7128 32.7344 16.0628C32.6172 16.4129 32.5781 16.7629 32.5781 17.113C32.5781 17.2685 32.6172 17.463 32.6562 17.6186C32.7344 17.8908 32.8125 18.1631 32.9688 18.3575C33.1641 18.552 33.4766 18.6687 33.7109 18.5131C33.8672 18.4353 33.9453 18.2409 34.0234 18.0853C34.1016 17.8519 34.1406 17.5797 34.2578 17.3463C34.3359 17.1518 34.4922 16.9574 34.6484 16.7629C34.8438 16.5296 35.0391 16.3351 35.1953 16.1017C35.3516 15.8684 35.5078 15.5961 35.5469 15.3239C35.625 15.0905 35.5469 14.7794 35.3125 14.5849Z"
                      fill="#EDC452"
                    />
                    <path
                      d="M18.4766 26.7973C18.4766 26.7973 17.0312 31.5034 17.7344 34.2648C18.3984 36.9873 23.6328 47.5662 23.6328 47.5662C23.6328 47.5662 30.625 35.1982 30.625 34.9259C30.625 34.6537 32.0312 27.8474 32.0312 27.8474L24.6484 32.359L18.4766 26.7973Z"
                      fill="#CEDCE3"
                    />
                    <path
                      d="M23.6328 31.3089L20.6641 32.4368V32.5535C20.7422 32.5924 22.0703 35.7427 22.0703 35.7427L24.6094 35.7816L26.7188 32.3201L23.6328 31.3089Z"
                      fill="#3AB8C9"
                    />
                    <path
                      d="M24.6484 45.7771C24.6484 45.7771 23.7109 47.4884 23.6328 47.5273C23.6328 47.5273 23.5938 47.4884 23.5938 47.4495C23.5547 47.4106 23.5156 47.3328 23.4766 47.255C23.4766 47.2161 23.4375 47.2161 23.4375 47.1773C23.0469 46.555 22.1875 45.1548 21.1328 43.4046L21.2891 42.0434L22.0703 35.6649L24.6094 35.7427L24.6484 45.7771Z"
                      fill="#3AB8C9"
                    />
                    <path
                      d="M31.7188 26.3306L23.6328 31.3089L26.0156 34.2648C26.4453 34.8093 27.2656 34.8482 27.7344 34.3426L32.8125 29.0531L31.7188 26.3306Z"
                      fill="#EDF4FB"
                    />
                    <path
                      d="M33.8281 31.3089L33.2031 31.4256C32.8906 31.4645 32.7344 31.7756 32.8125 32.0479L33.125 32.9035C33.1641 33.0202 33.1641 33.098 33.125 33.2147C31.875 38.893 27.1875 43.1713 24.6484 46.555C24.1797 47.2162 23.6719 47.4884 23.6328 47.5273C23.7891 47.255 24.6484 45.6604 24.7266 45.5438C29.6094 37.6874 31.7578 26.3306 31.7578 26.3306L33.0859 26.6417L34.2187 30.7255C34.2969 30.9978 34.1016 31.27 33.8281 31.3089Z"
                      fill="#414D53"
                    />
                    <path
                      d="M19.1797 26.3306L17.3828 27.1474L19.3359 33.1758C19.6484 33.8759 20.5859 34.0703 21.1719 33.5258L23.6328 31.27L19.1797 26.3306Z"
                      fill="#EDF4FB"
                    />
                    <path
                      d="M23.6328 47.5273C23.5937 47.4495 23.6328 47.5273 23.6328 47.5273C23.2812 47.0606 22.3047 46.0105 21.4453 44.6492C18.125 39.3209 16.5234 34.8871 15.8203 32.5924C15.7813 32.4757 15.7813 32.359 15.8203 32.2812L16.2109 31.3089C16.2891 31.1533 16.2109 30.92 16.0938 30.8033L15.4687 30.3366C15.3125 30.2199 15.2734 29.9865 15.3516 29.7921L17.3047 27.1862L19.1797 26.3695C19.1797 26.3695 19.2578 35.0815 21.2891 42.1212C21.8359 43.988 22.9297 45.9716 23.6328 47.5273Z"
                      fill="#414D53"
                    />
                  </g>
                  <defs>
                    <clipPath id="clip0">
                      <rect width="50" height="52" fill="white" />
                    </clipPath>
                  </defs>
                </svg>